# xmcd
#
# Track frame offsets:
#	150
#	12700
#	25550
#	40892
#	51890
#	67428
#	79294
#	95374
#	108042
#	126311
#
# Disc length: 1920 seconds
#
# Revision: 0
# Processed by: cddbd v1.5.2PL0 Copyright (c) Steve Scherf et al.
# Submitted via: audiograbber 1.83.01
#
DISCID=85077e0a
DTITLE=Dave Kemp - My Memories
DYEAR=2008
DGENRE=Country
TTITLE0=All My Yesterdays
TTITLE1=Fool Moon
TTITLE2=Couldn't Get A Fire Started At Home
TTITLE3=Hey, Hey, Hey
TTITLE4=It Could've Been You
TTITLE5=Mexico
TTITLE6=Warmin' the Bench
TTITLE7=Up The Ol' Wazoo
TTITLE8=My Memories
TTITLE9=Fightin' A Fire
EXTD=
EXTT0=
EXTT1=
EXTT2=
EXTT3=
EXTT4=
EXTT5=
EXTT6=
EXTT7=
EXTT8=
EXTT9=
PLAYORDER=
